<svg width="41" height="41" viewBox="0 0 41 41" fill="none" xmlns="http://www.w3.org/2000/svg">
<g id="icon">
<path id="Vector" d="M17.7307 4.47051L9.52764 12.6737C4.47466 17.7268 4.47471 25.9194 9.52774 30.9724C14.5808 36.0255 22.7734 36.0255 27.8265 30.9725L36.0296 22.7694M17.7307 4.47051L19.787 2.41423C20.4536 1.74756 20.787 1.41422 21.2012 1.41422C21.6154 1.41422 21.9487 1.74755 22.6154 2.41423L24.204 4.00278C24.8706 4.66944 25.2039 5.00277 25.2039 5.41699C25.2039 5.8312 24.8706 6.16453 24.204 6.8312L22.1477 8.88749M17.7307 4.47051L22.1477 8.88749M22.1477 8.88749L13.9447 17.0906C11.3311 19.7043 11.3311 23.9418 13.9447 26.5555C16.5584 29.1691 20.796 29.1691 23.4096 26.5555L31.6126 18.3524M31.6126 18.3524L33.6689 16.2962C34.3356 15.6295 34.6689 15.2962 35.0831 15.2962C35.4973 15.2962 35.8307 15.6295 36.4973 16.2962L38.0859 17.8847C38.7526 18.5514 39.0859 18.8847 39.0859 19.2989C39.0859 19.7132 38.7526 20.0465 38.0859 20.7132L36.0296 22.7694M31.6126 18.3524L36.0296 22.7694" stroke="white" stroke-width="2"/>
</g>
</svg>
