<svg width="34" height="35" viewBox="0 0 34 35" fill="none" xmlns="http://www.w3.org/2000/svg">
<path id="Rectangle 3072" d="M25.4853 2.65079C26.152 1.98412 26.4853 1.65079 26.8995 1.65079C27.3137 1.65079 27.6471 1.98412 28.3137 2.65079L31.8493 6.18632C32.516 6.85299 32.8493 7.18632 32.8493 7.60053C32.8493 8.01475 32.516 8.34808 31.8493 9.01475L8.51476 32.3493C7.84809 33.0159 7.51476 33.3493 7.10055 33.3493C6.68633 33.3493 6.353 33.0159 5.68633 32.3493L2.1508 28.8137C1.48413 28.1471 1.1508 27.8137 1.1508 27.3995C1.1508 26.9853 1.48413 26.652 2.1508 25.9853L25.4853 2.65079Z" stroke="white" stroke-width="2"/>
</svg>
